<svg width="31" height="25" viewBox="0 0 31 25" xmlns="http://www.w3.org/2000/svg"><g fill="currentColor" stroke="currentColor" stroke-width=".7" fill-rule="evenodd"><path d="M29.975 17.37a.243.243 0 0 0-.073-.11L23.9 11.104a.317.317 0 0 0-.467 0 .337.337 0 0 0 0 .479l5.428 5.576H14.333A.335.335 0 0 0 14 17.5c0 .192.147.342.333.342h14.529l-5.428 5.576a.337.337 0 0 0 0 .48c.06.068.147.102.234.102a.309.309 0 0 0 .233-.103l6-6.158a.243.243 0 0 0 .074-.109.35.35 0 0 0 0-.26"/><path d="M1.025 7.37a.243.243 0 0 1 .073-.11L7.1 1.104a.317.317 0 0 1 .467 0 .337.337 0 0 1 0 .479L2.138 7.158h14.529c.186 0 .333.15.333.342a.335.335 0 0 1-.333.342H2.138l5.428 5.576a.337.337 0 0 1 0 .48.309.309 0 0 1-.234.102.309.309 0 0 1-.233-.103l-6-6.158a.243.243 0 0 1-.074-.109.35.35 0 0 1 0-.26"/></g></svg>