<svg xmlns="http://www.w3.org/2000/svg" width="15" height="13" viewBox="0 0 15 13"><path fill="currentColor" stroke="currentColor" stroke-width=".7" d="M13.9797 6.39a.2066.2066 0 0 0-.0596-.0926L9.0446 1.0868a.2504.2504 0 0 0-.3792 0c-.1084.11-.1084.2953 0 .4053l4.4096 4.7184H1.271C1.1192 6.2105 1 6.338 1 6.5c0 .1621.1192.2895.2709.2895H13.075l-4.4096 4.7184c-.1084.11-.1084.2953 0 .4053A.2466.2466 0 0 0 8.855 12a.2466.2466 0 0 0 .1896-.0868L13.92 6.7026a.2066.2066 0 0 0 .0596-.0926.308.308 0 0 0 0-.22"/></svg>