<svg width="15" height="12" xmlns="http://www.w3.org/2000/svg"><g stroke="currentColor" fill="none" fill-rule="evenodd"><path d="M1.19 4.853l3.376-3.79a.168.168 0 0 1 .262 0 .221.221 0 0 1 0 .295L1.776 4.789h9.172c.105 0 .187.093.187.211s-.082.21-.187.21H1.776l3.052 3.432a.221.221 0 0 1 0 .295.167.167 0 0 1-.262 0L1.19 5.147a.151.151 0 0 1-.04-.067.235.235 0 0 1 0-.16.151.151 0 0 1 .04-.067zM10.135 10.79H7.963c-.105 0-.187.092-.187.21s.082.21.187.21h2.172v-.42z" stroke-width=".5" fill="currentColor"/><path d="M9.996 11h1a3 3 0 1 0 0-6" stroke-width=".92" stroke-linecap="round"/></g></svg>