<svg xmlns="http://www.w3.org/2000/svg" width="12" height="12"><g fill="currentColor" fill-rule="evenodd"><path d="M6.011 4.9414l3.795-3.795a.5.5 0 0 1 .707 0l.3626.3626a.5.5 0 0 1 0 .707L6.383 6.7087a.4986.4986 0 0 1-.372.1461.4986.4986 0 0 1-.372-.146L1.1464 2.216a.5.5 0 0 1 0-.7071l.3626-.3626a.5.5 0 0 1 .707 0l3.795 3.795z"/><path d="M6.011 6.9137l3.795 3.795a.5.5 0 0 0 .707 0l.3626-.3626a.5.5 0 0 0 0-.7071L6.383 5.1464a.4986.4986 0 0 0-.372-.146.4986.4986 0 0 0-.372.146L1.1464 9.639a.5.5 0 0 0 0 .7071l.3626.3625a.5.5 0 0 0 .707 0l3.795-3.7949z"/></g></svg>