<svg width="50" height="37" xmlns="http://www.w3.org/2000/svg"><g fill="#FFF" fill-rule="nonzero" opacity=".5"><path d="M18.936 17.847c1.702 0 3.085-1.415 3.085-3.156s-1.383-3.156-3.085-3.156-3.085 1.415-3.085 3.156 1.383 3.156 3.085 3.156zm0-1.306c-.957 0-1.702-.762-1.808-1.741h.744c0 .544.426 1.088 1.064 1.088.532 0 1.064-.435 1.064-1.088h.745c-.107.98-.851 1.741-1.809 1.741zm0-3.7c.638 0 1.17.327 1.49.87H17.34c.426-.435.958-.87 1.596-.87z"/><path d="M17.234 29.491c.106 1.197.426 3.265 1.383 5.006.638 1.197 1.809 1.85 3.085 1.959h.107c4.042 0 11.489-1.632 14.468-7.4a4.276 4.276 0 0 0 1.063 1.741l2.766 3.047c.639.653 1.49.98 2.34.98.214 0 .533 0 .745-.11 1.064-.217 1.915-1.088 2.235-2.176.957-3.264.638-6.094-.852-8.162 1.809-.652 3.511-2.067 4.894-4.352.638-.98.638-2.177.106-3.156-.531-.98-1.595-1.633-2.66-1.742l-4.042-.108c-1.383 0-2.66.435-3.617 1.306-.744-6.639-5-10.665-7.021-12.189-.957-.761-2.128-.87-3.298-.435-1.915.653-3.191 1.959-3.83 2.72-6.383.218-11.915 4.027-14.361 5.986-1.277 1.088-1.809 2.83-1.277 4.462 1.064 2.938 3.51 8.814 7.766 12.623zm6.064-20.785c.745-.109 1.596-.218 2.34-.218 1.383 0 2.766.218 4.15.653a10.888 10.888 0 0 1 6.808 6.42c1.276 3.048 1.064 6.53-.426 9.577-2.021 3.81-6.17 6.203-10.425 5.986-3.298-.218-6.064-1.96-8.085-4.136 2.978-1.85 5.212-4.57 6.276-8.053 1.064-3.482.851-7.073-.638-10.23zm-1.596 26.553c-.85 0-1.808-.544-2.234-1.306-.638-1.088-.957-2.394-1.064-3.482 2.022 1.523 4.362 2.611 7.234 2.72h.851c2.34 0 4.575-.653 6.49-1.741-3.298 2.938-8.192 3.809-11.17 3.809h-.107zm21.702-3.483c-.106.545-.532.653-.744.653a.847.847 0 0 1-.958-.326l-2.766-3.047c-.957-1.088-1.064-2.72-.213-3.809a3.274 3.274 0 0 1 1.915-.98c.745 0 1.383.327 1.915.871 1.809 2.068 1.49 4.788.851 6.638zm-3.617-12.405c.213-1.306 1.383-2.395 2.873-2.286l4.042.11c.426 0 .745.217.851.543.107.11.213.544 0 .98-1.064 1.74-2.766 3.7-5.319 3.7-.745 0-1.49-.327-1.915-.98-.425-.544-.638-1.306-.532-2.067zM29.362 4.57a2.102 2.102 0 0 1 2.234.326c1.383 1.088 3.83 3.265 5.319 6.856-1.596-2.177-3.83-3.809-6.49-4.68a11.803 11.803 0 0 0-3.83-.652c.639-.653 1.596-1.415 2.767-1.85zm-17.234 9.467c1.808-1.523 5.638-4.135 10.106-5.114 1.383 3.047 1.596 6.42.638 9.685-.957 3.265-3.085 5.876-5.957 7.509-2.872-3.374-4.575-7.618-5.32-10.012-.318-.762-.106-1.632.533-2.068z"/><path d="M27.872 27.315c.213 0 .426.109.639.109.85 0 1.595-.436 2.127-1.089l1.596-2.176c.638-.87.745-2.068.213-2.938a2.855 2.855 0 0 0-2.553-1.524l-3.937.218c-.319 0-.638.217-.744.435a.86.86 0 0 0-.213.87l.745 4.027c.212.98 1.064 1.85 2.127 2.068zm2.234-5.55c.32 0 .532.217.532.326.107.109.107.327 0 .653l-1.595 2.177c-.213.326-.532.217-.639.217-.106 0-.425-.109-.425-.435l-.532-2.83 2.66-.108zM3.617 11.535c0 1.089.851 1.96 1.915 1.96s1.915-.871 1.915-1.96c0-1.088-.851-1.959-1.915-1.959s-1.915.98-1.915 1.96zm2.66 0c0 .436-.32.87-.851.87-.532 0-.852-.326-.852-.87s.32-.87.852-.87c.531 0 .85.435.85.87zM2.979.544C1.277.544 0 1.96 0 3.591c0 1.633 1.383 3.047 2.979 3.047 1.595 0 2.978-1.414 2.978-3.047C5.957 1.96 4.681.544 2.98.544zm0 5.115c-1.064 0-1.915-.87-1.915-1.959 0-1.088.85-1.959 1.915-1.959 1.064 0 1.915.87 1.915 1.959C5 4.788 4.043 5.659 2.979 5.659z"/></g></svg>