<svg width="56" height="58" xmlns="http://www.w3.org/2000/svg" xmlns:xlink="http://www.w3.org/1999/xlink"><defs><path d="M25.679 34.714c5.318 0 9.63-4.317 9.63-9.643 0-5.325-4.312-9.642-9.63-9.642-5.318 0-9.63 4.317-9.63 9.642 0 5.326 4.312 9.643 9.63 9.643z" id="a"/><mask id="b" x="-2.24" y="-2.24" width="23.739" height="23.766"><path fill="#fff" d="M13.809 13.189h23.739v23.766H13.809z"/><use xlink:href="#a"/></mask></defs><g transform="translate(2 2)" stroke="#FFF" fill="none" fill-rule="evenodd" opacity=".5"><rect stroke-width="1.28" fill="#232527" x="-.64" y="-.64" width="53.28" height="51.423" rx="4.48"/><rect stroke-width=".96" fill="#232527" x="5.94" y="5.949" width="40.12" height="38.889" rx="4.48"/><rect stroke-width=".96" x="5.94" y="5.949" width="40.12" height="38.889" rx="4.48"/><ellipse stroke-width="1.28" cx="25.679" cy="25.071" rx="11.554" ry="11.569"/><ellipse stroke-width="1.28" fill="#151617" cx="25.679" cy="25.071" rx="5.134" ry="5.14"/><use mask="url(#b)" stroke-width="4.48" stroke-dasharray="1.279999847412114,1.919999771118171" xlink:href="#a"/><rect stroke-width=".96" fill="#151617" x="43.816" y="10.449" width="4.812" height="7.389" rx="1.28"/><rect stroke-width=".96" fill="#151617" x="43.816" y="32.949" width="4.812" height="7.389" rx="1.28"/><path d="M5.138 50.789h41.724v1.931c0 1.06-.86 1.92-1.92 1.92H7.058a1.92 1.92 0 0 1-1.92-1.92v-1.931z" stroke-width="1.28" fill="#151617"/></g></svg>