<svg width="106" height="89" xmlns="http://www.w3.org/2000/svg"><g fill="#FFF" fill-rule="nonzero" opacity=".5"><path d="M.055 34.55c0 21 7.987 35.25 23.208 42 1.055 3.15 3.919 8.4 11.454 11.4.301.15.753.15 1.055.15.753 0 1.356-.3 1.959-.75.754-.75 1.055-1.95.754-3-.453-1.35-.754-2.55-1.055-3.9 3.315.45 6.932.75 10.7.75 20.043 0 32.1-11.4 38.73-23.4 3.768-7.05 5.878-14.25 6.48-19.8.604-4.5.152-9.75-.15-12 11.604-7.5 12.509-18 12.358-22.2 0-1.05-.452-1.95-1.206-2.55-.753-.6-1.808-.9-2.712-.9-8.29.75-12.66 5.7-14.619 9-3.767-5.7-11.001-7.8-15.22-8.7-1.056-.15-2.261 0-3.015.75-.753.75-1.356 1.65-1.206 2.85.453 11.1 9.796 18.3 13.262 20.7-.904 2.4-4.22 8.1-16.426 8.1H1.562c-.15 0-.452 0-.603.15-.15.15-.301.15-.452.3 0 0 0 .15-.15.15-.151.15-.151.15-.151.3s0 .3-.151.45c.15 0 0 0 0 .15zm49.883 43.5c-28.031-4.35-40.389-24.6-45.06-35.7 7.233 10.35 25.468 29.1 63.747 30.6-5.425 3.15-11.755 4.8-18.687 5.1zM3.672 43.25c4.521 10.35 15.221 27.9 38.279 34.5-22.757-1.65-35.566-13.2-38.28-34.5zm31.95 41.7c-4.371-1.8-6.933-4.5-8.44-6.9 2.26.75 4.672 1.35 7.083 1.8.301 1.8.753 3.6 1.356 5.1zm35.264-13.5c-41.293-.9-59.679-21.9-65.858-31.65l1.507 1.5C18.29 52.7 33.813 60.05 50.09 61.7c2.11 2.4 5.124 4.8 9.796 6.15.3.15.602.15.904.15.753 0 1.507-.3 2.11-.9.753-.9.904-1.95.452-3-.302-.6-.603-1.35-.905-2.25h.453c6.63 0 13.11-.9 19.591-2.55-.452.75-.904 1.35-1.356 2.1-3.014 4.2-6.33 7.5-10.248 10.05zm12.96-46.2c.302-1.05-.15-2.1-1.054-2.7-1.96-1.35-11.906-8.1-12.207-18.6 0-.15.15-.3.15-.45 0 0 .302-.15.452-.15 4.22.9 11.755 3.15 14.468 9.6.301.6.753.9 1.356.9.603 0 1.206-.45 1.357-1.05.15-.3 3.164-8.85 13.412-9.75.151 0 .302.15.452.15 0 0 .151.15.151.45.15 3.6-.753 12.9-11.001 19.65a2.757 2.757 0 0 0-1.206 2.7c.15 1.95.603 7.05.15 11.4-.602 4.65-2.41 11.55-5.877 18.15a75.091 75.091 0 0 1-23.057 3.15c-.453-2.25-.754-4.95 0-7.5.15-.75-.302-1.65-1.055-1.8-.754-.15-1.658.3-1.809 1.05-1.356 5.7.452 11.25 1.809 14.25-4.07-1.2-6.631-3.45-8.29-5.4 0 0 0-.15-.15-.15-2.11-2.55-2.712-4.95-2.712-5.1-.151-.75-1.055-1.35-1.809-1.2-.753.15-1.356 1.05-1.206 1.8 0 .15.453 1.65 1.507 3.6-14.769-2.1-28.483-9-39.183-19.35L5.18 35.75h59.076c15.372.15 18.838-7.95 19.591-10.5z"/><path d="M83.696 34.25c.15 0 .452-.15.603-.3.15-.3.452-.6.602-.75.302-.3.151-.75-.15-1.05-.302-.3-.754-.15-1.055.15-.15.3-.302.45-.603.75s-.15.75.15 1.05c.151.15.302.15.453.15zM61.693 40.55h4.672c6.179 0 11.303-1.35 14.92-3.9.3-.3.452-.75.15-1.05-.301-.3-.753-.45-1.055-.15-3.466 2.4-8.138 3.6-14.015 3.6h-4.672c-.452 0-.754.3-.754.75s.453.75.754.75zM43.608 27.5c0 .9.603 1.5 1.507 1.5.905 0 1.508-.6 1.508-1.5v-6.6c0-2.1 1.657-3.75 3.767-3.75s3.768 1.65 3.768 3.75c0 .9.603 1.5 1.507 1.5.904 0 1.507-.6 1.507-1.5 0-3.75-3.014-6.75-6.782-6.75-1.356 0-2.713.45-3.767 1.05v-1.05c0-3.75-3.015-6.75-6.782-6.75-3.768 0-6.782 3-6.782 6.75 0 .9.603 1.5 1.507 1.5.904 0 1.507-.6 1.507-1.5 0-2.1 1.658-3.75 3.768-3.75s3.767 1.65 3.767 3.75V27.5z"/><path d="M34.717 17.3c-.904 0-1.507.6-1.507 1.5v.3c0 .9.603 1.5 1.507 1.5.904 0 1.507-.6 1.507-1.5v-.3c0-.75-.603-1.5-1.507-1.5zM33.662 50.3c3.165 0 5.727-2.55 5.727-5.7 0-3.15-2.562-5.7-5.727-5.7-3.165 0-5.727 2.55-5.727 5.7 0 3.15 2.562 5.7 5.727 5.7zm0-10.05c2.11 0 3.768 1.5 4.22 3.45h-8.44c.452-1.95 2.11-3.45 4.22-3.45zm-2.713 4.95c.302 1.2 1.357 2.1 2.562 2.1 1.206 0 2.26-.9 2.562-2.1h1.809c-.302 1.95-2.11 3.45-4.22 3.45s-3.768-1.5-4.22-3.45h1.507z"/></g></svg>