<svg xmlns="http://www.w3.org/2000/svg" width="238" height="40"><path fill="#FFF" fill-rule="nonzero" d="M2.6213 22.2293v7.8718H0V9.9937h7.3315c2.1753 0 3.8774.5616 5.1061 1.6848 1.2379 1.1232 1.8568 2.61 1.8568 4.4606 0 1.9518-.6053 3.4572-1.8159 4.5158-1.2014 1.0496-2.9262 1.5744-5.1743 1.5744H2.6213zm0-2.1681h4.7102c1.4017 0 2.4757-.3315 3.222-.9944.7464-.672 1.1195-1.6388 1.1195-2.9 0-1.197-.3731-2.1544-1.1195-2.8725-.7463-.7182-1.7703-1.091-3.0718-1.1186H2.6213v7.8855zm13.7619 2.4305c0-1.4638.2821-2.7804.8465-3.9497.5734-1.1692 1.3652-2.0715 2.3755-2.7067 1.0195-.6353 2.1799-.9529 3.4815-.9529 2.0114 0 3.6361.7043 4.874 2.113 1.2469 1.4086 1.8704 3.282 1.8704 5.6206v.1795c0 1.4546-.2776 2.762-.8328 3.9221-.5462 1.1508-1.3334 2.0484-2.3619 2.693-1.0195.6443-2.1936.9666-3.5224.9666-2.0024 0-3.627-.7043-4.874-2.113-1.2379-1.4086-1.8568-3.2729-1.8568-5.593v-.1795zm2.5395.3038c0 1.6572.3777 2.9876 1.133 3.9912.7647 1.0034 1.784 1.5052 3.0583 1.5052 1.2833 0 2.3028-.5063 3.0581-1.5191.7555-1.022 1.1332-2.449 1.1332-4.281 0-1.6389-.3868-2.9646-1.1604-3.9774-.7645-1.0219-1.784-1.533-3.0582-1.533-1.247 0-2.2527.502-3.0172 1.5054-.7646 1.0036-1.1468 2.4397-1.1468 4.3087zm27.1552 3.784l2.8397-11.4208h2.5257L47.1427 30.101h-2.0479l-3.5907-11.3243-3.495 11.3243h-2.0479l-4.287-14.9424h2.512l2.9082 11.186 3.4404-11.186h2.0343l3.5088 11.4208zm14.0758 3.7977c-2.0024 0-3.6316-.663-4.8877-1.9887-1.256-1.3349-1.884-3.1164-1.884-5.3444v-.4696c0-1.4822.2776-2.8033.8328-3.9634.5643-1.1692 1.347-2.0807 2.3483-2.7344 1.0102-.6628 2.1025-.9943 3.2766-.9943 1.9204 0 3.4132.6399 4.478 1.9196 1.065 1.2797 1.5975 3.1119 1.5975 5.4964v1.0633H55.9077c.0364 1.4731.4596 2.6654 1.2698 3.5768.819.9023 1.8568 1.3534 3.1128 1.3534.892 0 1.6474-.1842 2.2662-.5524.619-.3683 1.1606-.8562 1.6247-1.4639l1.5428 1.2153c-1.2379 1.9242-3.0945 2.8863-5.5703 2.8863zm-.314-13.3957c-1.0194 0-1.8749.3776-2.5666 1.1325-.6918.7457-1.1196 1.7952-1.2835 3.1487h7.3999v-.1934c-.073-1.2981-.4188-2.3017-1.0376-3.0106-.619-.7182-1.4564-1.0772-2.5122-1.0772zm16.1511.4696c-.3823-.0644-.7964-.0967-1.2424-.0967-1.6565 0-2.7805.7135-3.3721 2.1405v10.6062h-2.5258V15.1587h2.4575l.041 1.7261c.8282-1.335 2.0023-2.0024 3.5223-2.0024.4915 0 .8647.0644 1.1195.1933v2.3754zm8.1916 12.9261c-2.0024 0-3.6316-.663-4.8876-1.9887-1.256-1.3349-1.8841-3.1164-1.8841-5.3444v-.4696c0-1.4822.2776-2.8033.8328-3.9634.5644-1.1692 1.347-2.0807 2.3482-2.7344 1.0104-.6628 2.1026-.9943 3.2767-.9943 1.9205 0 3.4132.6399 4.4781 1.9196 1.065 1.2797 1.5974 3.1119 1.5974 5.4964v1.0633H79.9365c.0364 1.4731.4596 2.6654 1.2696 3.5768.8192.9023 1.8568 1.3534 3.1128 1.3534.892 0 1.6475-.1842 2.2664-.5524.619-.3683 1.1604-.8562 1.6247-1.4639l1.5428 1.2153c-1.2379 1.9242-3.0947 2.8863-5.5704 2.8863zm-.314-13.3957c-1.0193 0-1.875.3776-2.5667 1.1325-.6917.7457-1.1194 1.7952-1.2833 3.1487h7.3997v-.1934c-.0728-1.2981-.4186-2.3017-1.0376-3.0106-.6189-.7182-1.4562-1.0772-2.5121-1.0772zm8.3964 5.524c0-2.2924.537-4.1338 1.611-5.524 1.074-1.3994 2.4803-2.0991 4.2187-2.0991 1.7294 0 3.0992.5984 4.1095 1.7953V8.889h2.5257V30.101h-2.3209l-.123-1.602c-1.0102 1.2521-2.4165 1.8781-4.2186 1.8781-1.711 0-3.1083-.709-4.1913-2.1267-1.074-1.4178-1.6111-3.2684-1.6111-5.5517v-.1933zm2.5257.29c0 1.6941.3459 3.0198 1.0376 3.9773.6918.9575 1.6475 1.4363 2.8671 1.4363 1.602 0 2.7716-.7274 3.5088-2.182v-6.8636c-.7555-1.4086-1.916-2.113-3.4815-2.113-1.2378 0-2.2026.4834-2.8944 1.4502-.6917.9666-1.0376 2.3982-1.0376 4.2948zm33.3126 0c0 2.2833-.5188 4.12-1.5564 5.5102-1.0376 1.381-2.4302 2.0715-4.1776 2.0715-1.8659 0-3.3086-.6675-4.328-2.0024l-.1228 1.7263h-2.321V8.8889h2.5258v7.9131c1.0193-1.2797 2.4256-1.9196 4.2186-1.9196 1.7931 0 3.1992.6859 4.2187 2.0577 1.0285 1.3718 1.5427 3.2499 1.5427 5.6344v.221zm-2.5258-.29c0-1.74-.3321-3.0842-.9965-4.0324-.6645-.9484-1.6201-1.4226-2.867-1.4226-1.6658 0-2.8626.7827-3.5907 2.3478v6.463c.7736 1.5652 1.9796 2.3478 3.6178 2.3478 1.2106 0 2.1527-.4742 2.8262-1.4224.6736-.9484 1.0102-2.3754 1.0102-4.2812zm10.3894 3.853l3.4413-11.1998h2.7027l-5.9387 17.2486c-.92 2.4858-2.38 3.7287-4.3827 3.7287l-.4778-.0415-.942-.1794v-2.0716l.6826.0553c.8556 0 1.52-.175 1.9932-.5248.4827-.3499.8787-.9897 1.188-1.9196l.56-1.519-5.2702-14.7767h2.7577l3.6859 11.1998zm25.768-1.0778l3.1053-3.2126-3.86-5.2089-4.9147-6.9543c-1.736 2.9633-2.732 6.4126-2.732 10.0951 0 6.1004 2.732 11.5623 7.04 15.2305l6.2387-4.409c-2.1213-1.3219-3.8307-3.2466-4.8773-5.5408zm6.3173-16.879l3.2133 3.105 5.2094-3.86 6.9533-4.9149C180.4653.9955 177.016 0 173.3333 0c-6.1 0-11.5626 2.7318-15.2306 7.0404l4.4093 6.2385c1.3213-2.122 3.2467-3.8314 5.54-4.8771zm13.7747 9.5302l3.86 5.2089 4.9146 6.9543c1.736-2.9632 2.732-6.4126 2.732-10.0951 0-6.1004-2.732-11.5623-7.04-15.2305l-6.2386 4.409c2.1213 1.322 3.8306 3.2466 4.8773 5.5408l-3.1053 3.2126zm6.7373 15.0277l-4.4093-6.2385c-1.3214 2.122-3.2467 3.8314-5.54 4.8772l-3.2134-3.105-5.2093 3.86-6.9533 4.9148C166.2013 39.0045 169.6507 40 173.3333 40c6.1 0 11.5627-2.7319 15.2307-7.0404zm24.2107-24.3c-4.7427 0-7.792 3.6672-7.792 11.0415 0 7.3144 3.0693 11.0213 7.792 11.0213 4.724 0 7.8333-3.707 7.8333-11.0213 0-7.3145-3.1093-11.0414-7.8333-11.0414zm-5.1414 11.0613c0-5.4608 1.6934-8.6696 5.1214-8.6696 1.036 0 1.9333.299 2.7106.9168l-6.736 13.7718c-.7173-1.455-1.096-3.4479-1.096-6.019zm5.1414 8.6498c-1.036 0-1.9134-.299-2.6707-.877l6.736-13.7518c.7387 1.4948 1.0973 3.4678 1.0973 5.979 0 5.4211-1.7346 8.6498-5.1626 8.6498zm20.4693-5.9591l4.344-7.3741h-2.6907l-3.5866 6.0786h-1.096l-3.508-6.0786h-2.7507l4.2853 7.4738-4.764 7.8326h2.8307l3.8867-6.4176h1.076l3.8066 6.4176h2.9094l-4.7427-7.9323z"/></svg>