<svg width="32px" height="32px" xmlns="http://www.w3.org/2000/svg"><g fill-rule="nonzero" fill="none"><circle fill="#21084D" cx="16" cy="16" r="16"/><path d="M14.918 4.835c-.86.815-1.619 1.71-2.043 2.694a4.968 4.968 0 0 0-.327 3.046c.17.98.655 1.878 1.38 2.56.72.712 1.69 1.3 2.723 1.929 1.033.628 2.145 1.325 3.073 2.376a6.327 6.327 0 0 1 1.56 3.822 6.477 6.477 0 0 1-.96 3.858 8.145 8.145 0 0 1-2.785 2.585.309.309 0 0 1-.359-.5 7.98 7.98 0 0 0 2.115-2.643c.45-.978.584-2.07.386-3.128a4.494 4.494 0 0 0-1.405-2.632c-.735-.708-1.704-1.274-2.748-1.877-1.044-.604-2.165-1.264-3.143-2.281a6.49 6.49 0 0 1-1.194-1.78 6.436 6.436 0 0 1-.504-2.06 6.325 6.325 0 0 1 .992-3.942 7.762 7.762 0 0 1 2.894-2.515.302.302 0 1 1 .347.488h-.002zm2.453-.5a.245.245 0 0 0-.29.067.295.295 0 0 0 .01.39c.59.58 1.122 1.215 1.59 1.897 1.745 2.973.226 5.674-.153 6.355l-.016.034a.858.858 0 0 0 .041.871.797.797 0 0 0 1.115.2c1.361-1.194 1.495-3.679 1.504-4.192a6.457 6.457 0 0 0-.2-1.53 6.178 6.178 0 0 0-.574-1.39 6.709 6.709 0 0 0-.862-1.135 7.371 7.371 0 0 0-2.165-1.566zM14.602 27.73c.1.048.22.022.29-.064a.297.297 0 0 0-.01-.392 12.736 12.736 0 0 1-1.59-1.895c-1.745-2.976-.215-5.674.153-6.355l.016-.032a.858.858 0 0 0-.041-.871.794.794 0 0 0-1.115-.2c-1.375 1.183-1.502 3.665-1.511 4.178.005.516.072 1.03.2 1.53.137.488.334.958.585 1.398.247.413.536.798.863 1.15a7.362 7.362 0 0 0 2.165 1.553h-.005z" fill="#FFF"/></g></svg>