<svg width="32px" height="32px" xmlns="http://www.w3.org/2000/svg"><defs/><g data-name="Ebene 2"><g data-name="Ebene 1"><g data-name="&lt;Gruppe&gt;"><path d="M16.79 6.07l7.49 17.12a.29.29 0 0 1-.27.41h-3.28a.29.29 0 0 1-.26-.17L16 13l-4.47 10.43a.29.29 0 0 1-.26.17H8a.29.29 0 0 1-.27-.41l7.48-17.12a.29.29 0 0 1 .27-.17h1a.29.29 0 0 1 .31.17z"/><path d="M16 0A16 16 0 1 1 0 16 16 16 0 0 1 16 0zm8 23.6a.29.29 0 0 0 .27-.41L16.79 6.07a.29.29 0 0 0-.27-.17h-1a.29.29 0 0 0-.27.17L7.72 23.19a.29.29 0 0 0 .28.41h3.28a.29.29 0 0 0 .26-.17L16 13l4.47 10.46a.29.29 0 0 0 .26.17z"/></g></g></g></svg>