<svg width="32" height="32" xmlns="http://www.w3.org/2000/svg">
  <path d="M28 12.48973815h-2.4707302C24.1689801 8.64685067 20.5114665 6 15.6879903 6H7.75528063v6.48973815H5v2.32837933h2.75528063v2.44161362H5v2.3283793h2.75528063V26h7.93270967c4.7679542 0 8.3977067-2.6185421 9.7926977-6.4118896H28v-2.3283793h-1.9640917c.0485817-.4104742.0694025-.8351026.0694025-1.2597311v-.05661713c0-.3821656-.0208208-.75725407-.055522-1.12526539H28v-2.32837933zM9.97616174 8.08067941h5.71182856c3.5395293 0 6.1698854 1.77636235 7.3844297 4.40905874H9.97616174V8.08067941zM15.6879903 23.9122435H9.97616174v-4.3241331H23.0585395c-1.2284248 2.5902335-3.8449004 4.3241331-7.3705492 4.3241331zm8.1270369-7.8556264c0 .4104742-.0277611.8138712-.0832831 1.203114H9.97616174v-2.44161362H23.7386844c.0485817.38216561.0763428.77848549.0763428 1.18188252v.0566171z" fill="#F4B731" fill-rule="nonzero"/>
</svg>
