<svg width="32px" height="32px" xmlns="http://www.w3.org/2000/svg"><g fill="none" fill-rule="evenodd"><circle fill="#FFF" cx="16" cy="16" r="16"/><path d="M15.998 31.996C7.163 31.996 0 24.834 0 15.998 0 7.163 7.163 0 15.998 0c8.836 0 15.998 7.163 15.998 15.998 0 8.836-7.162 15.998-15.998 15.998zm0-.524c8.546 0 15.474-6.928 15.474-15.474S24.544.525 15.998.525.525 7.452.525 15.998c0 8.546 6.927 15.474 15.473 15.474z" fill="#FFCE45" fill-rule="nonzero"/><path fill="#FFCE45" fill-rule="nonzero" d="M15.998 3.682l12.055 12.055L15.998 27.79 3.944 15.737z"/><path fill="#FEBE44" fill-rule="nonzero" d="M15.998 19.67L3.934 15.736 15.998 3.682l12.064 12.054z"/><path fill="#FFF" fill-rule="nonzero" d="M8.13 14.95h5.508l2.36-2.624 2.623 2.623h5.507l-8.13-8.786L8.13 14.95"/><path fill="#D9A547" fill-rule="nonzero" opacity=".42" d="M15.998 27.79V3.682l12.054 12.054L15.998 27.79"/></g></svg>