<svg width="32px" height="32px" xmlns="http://www.w3.org/2000/svg"><g fill="none" fill-rule="evenodd"><circle fill="#00DCFA" cx="16" cy="16" r="16"/><path d="M19.685 4c-4.221 0-7.807 3.247-8.26 7.426C7.248 11.878 4 15.464 4 19.685 4 24.273 7.727 28 12.315 28c4.221 0 7.821-3.247 8.26-7.426C24.752 20.122 28 16.536 28 12.315 28 7.727 24.273 4 19.685 4zm6.367 9.247c-.41 2.781-2.64 5.012-5.421 5.421v-5.42h5.42zM5.948 18.753c.41-2.795 2.64-5.026 5.421-5.435v5.42H5.95v.015zm12.734 1.878a6.43 6.43 0 0 1-6.367 5.491 6.43 6.43 0 0 1-6.367-5.491h12.734zm.07-7.384v5.492h-5.505v-5.492h5.506zm7.3-1.878H13.318a6.43 6.43 0 0 1 6.367-5.491 6.43 6.43 0 0 1 6.367 5.491z" fill="#FFF" fill-rule="nonzero"/></g></svg>