<svg width="32px" height="32px" xmlns="http://www.w3.org/2000/svg"><g fill="none" fill-rule="evenodd"><circle fill="#FFF" cx="16" cy="16" r="16"/><path d="M6 5h22v22H6V5zm2.398.709H6.652c-.1 0-.135.032-.135.123v3.324c0 .082.036.12.12.12h3.516c.076 0 .098-.024.098-.097l-.001-3.3-.001-.093c-.001-.05-.026-.076-.076-.076l-.064-.001H8.398zm-.013 12.09h1.745c.106 0 .121-.016.121-.122l-.001-3.141c0-.041.001-.082-.001-.123-.003-.04-.027-.064-.067-.067-.023-.002-.046-.002-.07-.002H6.651c-.12 0-.134.012-.133.133v3.224c.001.07.024.094.093.097a.622.622 0 0 0 .047.002c.575-.002 1.15-.002 1.727-.002zm.001 5.038H6.745c-.049 0-.097 0-.146.002-.05 0-.078.029-.081.079l-.001.058v3.188c0 .11.014.126.123.126h3.491c.107 0 .12-.014.12-.122l-.001-3.107v-.14c-.001-.053-.027-.082-.083-.084H8.386zm17.234-5.039h1.746c.1 0 .12-.018.12-.117v-3.142c0-.037-.002-.073 0-.11 0-.056-.03-.082-.082-.085-.02-.002-.038-.002-.058-.002h-3.421c-.126 0-.154.028-.154.153v3.177c0 .111.014.125.128.125l1.72.001zm-8.612-4.31h1.647c.047 0 .093.001.14-.001.043-.002.067-.027.069-.071v-.058-3.194c0-.118-.012-.13-.13-.13h-3.456c-.109 0-.125.016-.125.123v3.205c0 .113.013.126.128.126h1.727zm-.001 8.47h1.775c.055-.002.082-.03.083-.084v-.134-3.102c0-.113-.017-.13-.127-.13-1.152 0-2.305 0-3.457.002-.02 0-.04-.002-.058.002-.041.007-.068.03-.07.073v3.254c0 .094.025.12.12.12h1.734z" fill-rule="nonzero"/><path d="M8.765 5.688H10.726c.056 0 .083.032.084.088l.001.108c0 1.272 0 2.545.002 3.817 0 .085-.024.111-.109.111H6.821c-.094 0-.133-.043-.133-.138V5.83c0-.105.04-.143.149-.143h1.928zM8.75 18.75H6.843l-.052-.001c-.075-.005-.101-.032-.103-.117v-.153-3.694c0-.145.015-.16.147-.16h3.825c.026 0 .052 0 .078.003.043.005.07.033.073.08.002.049.001.098.001.146 0 1.25 0 2.5.002 3.75 0 .127-.016.145-.134.145l-1.928.001zM8.753 22.188h1.967c.062 0 .09.037.091.101.002.056 0 .111 0 .167 0 1.237 0 2.475.002 3.71 0 .13-.015.146-.133.146H6.824c-.121 0-.136-.018-.136-.15v-3.808-.07c.005-.059.034-.092.09-.094l.162-.001c.604-.002 1.208-.002 1.813-.002zM25.243 18.749H23.33c-.127 0-.142-.017-.142-.15v-3.792c0-.149.032-.182.17-.182h3.8l.064.001c.058.005.092.035.09.102v3.882c0 .118-.02.14-.133.14l-1.936-.001zM17.688 13.937h-1.92c-.127 0-.143-.015-.143-.15V9.96c0-.128.018-.148.14-.148h3.84c.13 0 .145.016.145.156v3.814l-.001.069c-.003.053-.029.082-.077.085-.051.003-.103.001-.155.001h-1.829zM17.687 22.188H15.76c-.107 0-.135-.032-.135-.145v-3.805l.001-.084c.003-.053.031-.079.077-.087.02-.005.042-.003.064-.003 1.28 0 2.561 0 3.841-.002.123 0 .141.02.141.155v3.708c0 .052.002.107 0 .16 0 .064-.03.098-.091.1l-.156.001c-.604 0-1.209 0-1.815.002z" fill="#000" fill-rule="nonzero"/></g></svg>