<svg width="32px" height="32px" xmlns="http://www.w3.org/2000/svg"><g fill="none" fill-rule="evenodd"><circle fill="#000" cx="16" cy="16" r="15.5"/><path d="M11.745 12.267a4.067 4.067 0 0 0-.668-1.21c-.281-.284-.633-.426-1.02-.39h-.352c.317.106.598.32.844.569.247.355.458.746.633 1.137l3.974 9.6c.106-.177.176-.39.211-.604a2.38 2.38 0 0 0-.211-.711l-3.41-8.391zM19.446 22.009h.317c.386 0 .633-.107.738-.32.106-.391.14-.782.14-1.173v-8.427a3.766 3.766 0 0 1 .177-1.387c-.247.036-.387.071-.493.214-.105.142-.176.284-.176.462-.035.32-.035.64-.035.96v8.426c.035.285 0 .57-.14.854a5.035 5.035 0 0 1-.528.39z" fill="#FFFDF3" fill-rule="nonzero"/><path d="M16.035 1.671c-7.736 0-14.03 6.365-14.03 14.187 0 7.822 6.294 14.186 14.03 14.186s14.03-6.364 14.03-14.186S23.772 1.67 16.036 1.67zm7.596 9.031a2.141 2.141 0 0 0-1.231.25c-.246.141-.387.355-.387.64-.035.497-.07.995-.07 1.528v7.538c0 .284.035.604.176.889a.681.681 0 0 0 .492.39c.352.107.703.143 1.055.179v.462h-5.591v-.462c.422.035.809-.036 1.195-.214.211-.106.387-.284.422-.533.035-.356.07-.747.07-1.102v-8.498l-4.325 10.738h-.492l-4.22-10.418v7.147c-.035.675.14 1.315.457 1.884.387.498.915.818 1.513.924v.463h-4.36v-.463a2.06 2.06 0 0 0 1.44-.746 2.798 2.798 0 0 0 .493-1.742v-8.072a1.985 1.985 0 0 0-.844-.568 3.646 3.646 0 0 0-1.055-.178v-.462h3.939l3.833 9.315 3.762-9.315h3.693l.035.426z" fill="#FFFDF3" fill-rule="nonzero"/><path d="M10.374 20.871a1.87 1.87 0 0 1-.352.64 7.736 7.736 0 0 1-.633.498h1.793a1.247 1.247 0 0 1-.492-.462c-.176-.214-.246-.427-.316-.676z" fill="#FFFDF3" fill-rule="nonzero"/><path d="M16.035 31.751c-8.65 0-15.683-7.075-15.719-15.858C.316 7.147 7.314.036 16 0c8.65 0 15.684 7.076 15.719 15.858-.035 8.746-7.033 15.858-15.684 15.893zm0-31.111C7.736.64.985 7.431.985 15.858c0 8.39 6.716 15.218 15.05 15.218s15.05-6.792 15.05-15.218C31.052 7.467 24.336.676 16.036.64z" fill="#FFFDF3" fill-rule="nonzero"/></g></svg>