<svg width="32px" height="32px" xmlns="http://www.w3.org/2000/svg"><g fill="none" fill-rule="evenodd"><circle cx="15.615" cy="16.28" r="13.29"/><path d="M4.91 24.926v.206H2.814v-3.879l-.065.215-2.004-.619 1.132-3.737-.14.209L0 16.138l2.171-3.248-.207.169-1.319-1.644L3.77 8.862l-.4.155-.75-1.975L6.35 5.597l-.436.03-.146-2.11 3.907-.275-.353-.082.472-2.06 3.732.869-.235-.137L14.34 0l3.255 1.897-.127-.138L19.001.317l2.535 2.743-.054-.112 1.884-.927 1.626 3.365-.015-.094 2.07-.331.61 3.886.044-.277 2.07.331-.619 3.944.153-.317 1.884.927-1.744 3.61.254-.277 1.533 1.443-2.71 2.932.329-.191 1.048 1.832-3.407 1.984.343-.08.471 2.061-3.763.877.29.02-.147 2.11-3.767-.266.192.075-.751 1.974-3.607-1.397.228.186-1.319 1.644-2.977-2.432.147.22-1.737 1.182-2.128-3.183.063.209-2.005.618-1.115-3.68zm0-2.513l1.309-.404 1.017 3.358 1.132-.77 1.935 2.894.864-1.077 2.68 2.191.48-1.26 3.23 1.25.096-1.365 3.457.244-.311-1.36 3.389-.79-.702-1.226 3.025-1.763-1.037-.975 2.39-2.586-1.275-.627 1.537-3.18-1.394-.222.548-3.492-1.333.213-.548-3.49-1.201.591-1.526-3.157-.979.921-2.36-2.554-.676 1.18-2.989-1.74-.309 1.35-3.362-.784.098 1.408-3.451.244.51 1.342-3.25 1.258.875 1.09-2.729 2.23 1.152.783-1.967 2.943 1.325.408-1.027 3.391H4.91v3.533z" fill="#FF3B81" fill-rule="nonzero"/><path d="M22.287 9.319l-2.102 9.829-2.118-.03 1.125-10.074 3.095.275zm-1.728 10.82l-.504 3.459-2.847-.684.49-3.319 2.861.544z" fill="#FF3B81" fill-rule="nonzero"/><text fill="#FF3B81" font-family="AvenirNext-Bold, Avenir Next" font-size="17.751" font-weight="bold"><tspan x="7.585" y="21.894">S</tspan></text></g></svg>