<svg width="32px" height="32px" xmlns="http://www.w3.org/2000/svg"><g fill-rule="nonzero" fill="none"><path d="M15.937 32c8.766 0 15.874-7.164 15.874-16S24.703 0 15.937 0C7.171 0 .063 7.164.063 16s7.108 16 15.874 16z" fill="#2775CA"/><g fill="#FFF"><path d="M20.289 18.545c0-2.337-1.412-3.124-4.138-3.5-2.01-.295-2.401-.77-2.401-1.717 0-.899.68-1.536 1.996-1.536 1.189 0 1.872.419 2.154 1.381a.501.501 0 0 0 .476.369h1.043c.29 0 .517-.27.456-.557-.33-1.523-1.348-2.438-2.945-2.725V8.668c0-.277-.222-.5-.497-.5h-.992a.498.498 0 0 0-.497.5v1.55c-1.968.281-3.238 1.6-3.238 3.293 0 2.192 1.313 3.04 4.087 3.416 1.883.31 2.417.719 2.417 1.798 0 1.08-.91 1.798-2.19 1.798-1.73 0-2.303-.764-2.512-1.752a.504.504 0 0 0-.486-.407H11.89a.465.465 0 0 0-.458.541c.287 1.664 1.348 2.885 3.512 3.183v1.58c0 .276.222.5.497.5h.992a.498.498 0 0 0 .497-.5v-1.58c2.048-.328 3.359-1.765 3.359-3.543z"/><path d="M12.535 25.56a10.013 10.013 0 0 1-6.518-9.395c0-4.31 2.719-7.99 6.518-9.394.237-.087.426-.376.426-.63v-.932c0-.379-.292-.592-.65-.478-4.802 1.55-8.28 6.083-8.28 11.437 0 5.353 3.478 9.887 8.28 11.433.358.115.65-.099.65-.477v-.932c0-.257-.189-.544-.426-.633zM19.565 4.734c-.357-.114-.65.099-.65.477v.932c0 .254.19.544.426.63a10.013 10.013 0 0 1 6.519 9.395c0 4.31-2.72 7.99-6.519 9.394a.669.669 0 0 0-.426.63v.932c0 .378.293.592.65.477 4.803-1.546 8.28-6.08 8.28-11.433 0-5.354-3.48-9.887-8.28-11.434z"/></g></g></svg>