<svg width="32px" height="32px" xmlns="http://www.w3.org/2000/svg"><defs/><g data-name="Ebene 2"><g data-name="Ebene 1"><g data-name="&lt;Gruppe&gt;"><path d="M22.1 20.93h1.45v2.68H22.1zM22.1 17.07h1.45v2.68H22.1zM22.1 13.2h1.45v2.68H22.1zM21.84 20.93v2.68h-5.58l.81-2.68h4.77zM21.84 17.07v2.68h-4.37l.81-2.68h3.56zM21.84 13.2v2.68h-3.16l.81-2.68h2.35zM19.97 8.39l-4.59 15.19h-2.34L8.45 8.39h2.78l2.98 9.99 2.98-9.99h2.78z"/><path d="M15.38 23.58L20 8.39h-2.81l-3 10-3-10H8.45L13 23.58h2.34zm6.46-7.7V13.2h-2.35l-.81 2.68zm0 3.87v-2.68h-3.56l-.81 2.68zm0 3.86v-2.68h-4.77l-.81 2.68zm.26-2.68v2.68h1.45v-2.68zm1.45-1.18v-2.68H22.1v2.68zm0-3.87V13.2H22.1v2.68zM16 0A16 16 0 1 1 0 16 16 16 0 0 1 16 0z"/></g></g></g></svg>