<svg xmlns="http://www.w3.org/2000/svg" xmlns:xlink="http://www.w3.org/1999/xlink" width="58" height="58"><defs><path id="a" d="M0 0h58v58H0z"/><path id="c" d="M29 57c15.464 0 28-12.536 28-28S44.464 1 29 1 1 13.536 1 29s12.536 28 28 28z"/></defs><g fill="none" fill-rule="evenodd"><g stroke-dasharray="2,3"><mask id="b" fill="#fff"><use xlink:href="#a"/></mask><path fill="#8751E7" fill-opacity=".2" fill-rule="nonzero" stroke="#8751E7" stroke-width="2" d="M29 57c15.464 0 28-12.536 28-28S44.464 1 29 1 1 13.536 1 29s12.536 28 28 28z" mask="url(#b)"/></g><path fill="#B0A6D2" d="M29.5 9L42 29l-12.5-5.1345L17 29z"/><path fill="#9283BD" d="M29.5 9L42 29l-12.5-5.06z"/><path fill="#9283BD" d="M42 29l-12.5-5.3013L17 29l12.5 7.7411z"/><path fill="#7463A9" d="M29.5 23.6987L42 29l-12.5 7.7411z"/><path fill="#B0A6D2" d="M17 31.6038l12.5 7.2937L42 31.6038 29.5 49z"/><path fill="#9283BD" d="M42 31.6038l-12.5 7.2937V49z"/></g></svg>