<svg width="58" height="58" xmlns="http://www.w3.org/2000/svg"><g transform="translate(1 1)" fill="#FFF" fill-rule="evenodd"><circle stroke="#FFF" fill-opacity=".2" cx="28" cy="28" r="28.5"/><path d="M46.408 24.224c1.191 4.965.134 9.863-1.929 13.302a798.716 798.716 0 0 0-3.388-4.462c-1.61-2.147-3.238-4.277-4.865-6.441.52-.537 1.023-1.074 1.543-1.594.42-.452.856-.905 1.292-1.342.134-.134.134-.234.05-.402-.956-1.93-2.315-3.489-4.11-4.68-.066-.05-.117-.1-.234-.168a869.314 869.314 0 0 0 4.713-3.54c.269-.184.52-.385.789-.586 3.12 2.667 5.183 5.955 6.139 9.913M37.702 12.533c-3.757 2.7-7.498 5.384-11.255 8.085-.15-.134-.302-.269-.436-.42a317.695 317.695 0 0 1-2.382-2.314c-.117-.118-.218-.135-.369-.067a11.984 11.984 0 0 0-4.646 4.076c-.05.067-.101.117-.185.251-1.375-1.845-2.734-3.673-4.126-5.518.419-.437.805-.89 1.207-1.292 2.735-2.65 5.955-4.345 9.712-5.015.722-.134 1.46-.185 2.181-.269.084 0 .168-.033.252-.05h1.577l.939.1c2.65.252 5.116 1.04 7.414 2.349.034.017.067.05.117.084M42.45 40.478c-3.003 3.388-6.71 5.485-11.189 6.207-.57.083-1.14.117-1.71.184-.085 0-.152.034-.219.034h-1.728c-.452-.034-.905-.084-1.358-.135a18.364 18.364 0 0 1-6.911-2.281c-.034-.033-.067-.05-.118-.1 3.69-2.751 7.381-5.502 11.088-8.27.37.352.738.721 1.107 1.073.62.604 1.241 1.208 1.862 1.829.15.15.252.15.436.05a11.81 11.81 0 0 0 4.563-4.009c.067-.067.117-.15.184-.251l.151.15c1.275 1.728 2.567 3.44 3.858 5.15.1.134.1.235-.017.37M17.44 42.005l-.806.604c-3.27-2.818-5.401-6.29-6.256-10.501-.906-4.495-.168-8.756 2.063-12.815 1.208 1.576 2.398 3.137 3.59 4.696 1.61 2.097 3.203 4.194 4.797 6.29-.57.571-1.124 1.158-1.694 1.728-.42.437-.84.873-1.258 1.292-.135.117-.135.218-.068.37a12.056 12.056 0 0 0 4.077 4.629c.05.05.117.084.167.117.017.017.017.034.05.084a3443.127 3443.127 0 0 0-4.663 3.506"/></g></svg>